<svg xmlns="http://www.w3.org/2000/svg" width="1200" height="1600" viewBox="0 0 1200 1600">
  <rect width="1200" height="1600" fill="#f8fafc"/>
  <rect x="60" y="60" width="1080" height="1480" rx="24" fill="#ffffff" stroke="#0f172a" stroke-width="4"/>
  <text x="90" y="130" font-family="Arial, sans-serif" font-size="30" font-weight="700" fill="#0f172a">FORM 34A - OBSERVER SCAN COPY</text>
  <text x="90" y="180" font-family="Arial, sans-serif" font-size="20" fill="#334155">Polling Station: KE-047-290-0001 · Westlands Primary School Stream 1</text>
  <rect x="90" y="270" width="1020" height="72" fill="#e2e8f0" stroke="#cbd5e1"/>
  <text x="120" y="315" font-family="Arial, sans-serif" font-size="22" font-weight="700" fill="#0f172a">Candidate</text>
  <text x="700" y="315" font-family="Arial, sans-serif" font-size="22" font-weight="700" fill="#0f172a">Party</text>
  <text x="930" y="315" font-family="Arial, sans-serif" font-size="22" font-weight="700" fill="#0f172a">Votes</text>
  <g font-family="Arial, sans-serif" font-size="24" fill="#0f172a">
    <rect x="90" y="342" width="1020" height="78" fill="#ffffff" stroke="#e2e8f0"/>
    <text x="120" y="392">John Kariuki</text>
    <text x="710" y="392">UDA</text>
    <text x="940" y="392">14,523</text>
    <rect x="90" y="420" width="1020" height="78" fill="#f8fafc" stroke="#e2e8f0"/>
    <text x="120" y="470">Mary Wambui</text>
    <text x="710" y="470">ODM</text>
    <text x="940" y="470">12,891</text>
    <rect x="90" y="498" width="1020" height="78" fill="#ffffff" stroke="#e2e8f0"/>
    <text x="120" y="548">Peter Omondi</text>
    <text x="710" y="548">ANC</text>
    <text x="940" y="548">9,044</text>
    <rect x="90" y="576" width="1020" height="78" fill="#f8fafc" stroke="#e2e8f0"/>
    <text x="120" y="626">Grace Akinyi</text>
    <text x="710" y="626">WDM-K</text>
    <text x="940" y="626">3,210</text>
  </g>
  <text x="90" y="720" font-family="Arial, sans-serif" font-size="24" font-weight="700" fill="#0f172a">Total Valid Votes: 39,668</text>
  <text x="90" y="760" font-family="Arial, sans-serif" font-size="22" fill="#0f172a">Rejected Ballots: 412</text>
</svg>
